<?xml version="1.0" encoding="UTF-8"?>
<svg id="Layer_1" xmlns="http://www.w3.org/2000/svg" version="1.1" viewBox="0 0 108.6 108.6">
  <!-- Generator: Adobe Illustrator 29.2.1, SVG Export Plug-In . SVG Version: 2.1.0 Build 116)  -->
  <defs>
    <style>
      .st0 {
        fill: none;
        stroke: #004936;
        stroke-miterlimit: 10;
        stroke-width: 5.3px;
      }

      .st1 {
        fill: #004936;
      }
    </style>
  </defs>
  <path class="st0" d="M88.4,106H20.3c-2.4,0-4.7-.5-6.9-1.4-2.1-.9-4-2.2-5.6-3.8-1.6-1.6-2.9-3.5-3.8-5.6-.9-2.2-1.4-4.5-1.4-6.9V20.3c0-2.4.5-4.7,1.4-6.9.9-2.1,2.2-4,3.8-5.6,1.6-1.6,3.5-2.9,5.6-3.8,2.2-.9,4.5-1.4,6.9-1.4h68.1c2.4,0,4.7.5,6.9,1.4,2.1.9,4,2.2,5.6,3.8,1.6,1.6,2.9,3.5,3.8,5.6.9,2.2,1.4,4.5,1.4,6.9v68.1c0,2.4-.5,4.7-1.4,6.9-.9,2.1-2.2,4-3.8,5.6-1.6,1.6-3.5,2.9-5.6,3.8-2.2.9-4.5,1.4-6.9,1.4Z"/>
  <path class="st1" d="M35.9,91.2c-2,0-3.9-.3-5.7-.8-2.7-.8-5.2-2.1-7.3-3.9-2.6-2.3-4.2-6.1-4.2-10.5,0-2.6.4-5.3,1.4-7.8,1.1-2.8,2.7-5.1,4.8-7.1,2.7-2.5,5.9-4.6,9.7-6.1,3.7-1.5,7.9-2.6,12.7-3.2,2.9-.4,6.1-.6,9.5-.7,0-.6.2-1.2.2-1.8,1.6-13.4,1.2-27.1.9-34.1,0-.8,0-1.5-.1-2.3l7.4-.5c0,.8,0,1.6.1,2.4.4,7.2.7,21.4-.9,35.4,0,.4,0,.7-.1,1.1,5.2.2,11,.8,17.2,1.7l-1.1,7.3c-6.3-.9-12-1.5-17.3-1.7-.8,4.3-1.8,8.2-3,11.7-1.1,3.3-2.4,6.2-3.9,8.7-1.6,2.8-3.5,5.1-5.6,7-3.2,2.9-8,4.8-12.8,5.2-.7,0-1.3,0-2,0ZM55.6,58.5c-2.6,0-5,.3-7.3.6-8.1,1.1-14.3,3.6-18.3,7.4-2.5,2.3-3.9,5.9-3.9,9.4,0,2.2.7,4.1,1.7,5.1,2.6,2.3,5.6,2.9,8,2.9.5,0,.9,0,1.3,0,3.2-.3,6.5-1.6,8.5-3.4,2.9-2.6,5.4-6.8,7.3-12.5.9-2.8,1.8-5.9,2.5-9.3Z"/>
  <path class="st1" d="M19.5,35.5l3.8-18.4,7.2,1.5c5.8,1.2,8.7,5.7,7.6,11-1.1,5.3-5.7,8.5-11.4,7.3l-7.2-1.5ZM25.2,32.3l2,.4c3.2.7,5.1-.7,5.8-4.1.7-3.2-.6-5.3-3.8-5.9l-2-.4-2.1,10Z"/>
  <path class="st1" d="M80.5,82.5l.3,11.5-4.6,1.3-9.4-15.8,4.4-1.3,5.3,9.5-.3-11,4.6-1.3,5.6,9.5-.7-10.9,4.4-1.3.7,18.4-4.5,1.3-5.9-9.8Z"/>
</svg>